<svg xmlns="http://www.w3.org/2000/svg" viewBox="-4 -18 450 141" width="450" height="141" font-family="ui-monospace,Menlo,monospace">
<style>
.cold{fill:#191c22;stroke:#23262e;stroke-width:.5}
.hot{fill:#ff6b35;filter:drop-shadow(0 0 4px rgba(255,107,53,.7))}
.m{fill:#5a5d66;font-size:9px}
</style>
<text class="m" x="0" y="-6">Jan</text><text class="m" x="51" y="-6">Feb</text><text class="m" x="119" y="-6">Mar</text><text class="m" x="204" y="-6">Apr</text><text class="m" x="272" y="-6">May</text><text class="m" x="357" y="-6">Jun</text><text class="m" x="425" y="-6">Jul</text>
<rect class="cold" x="0" y="0" width="13" height="13" rx="3"><title>2026-01-11</title></rect><rect class="cold" x="0" y="17" width="13" height="13" rx="3"><title>2026-01-12</title></rect><rect class="cold" x="0" y="34" width="13" height="13" rx="3"><title>2026-01-13</title></rect><rect class="cold" x="0" y="51" width="13" height="13" rx="3"><title>2026-01-14</title></rect><rect class="cold" x="0" y="68" width="13" height="13" rx="3"><title>2026-01-15</title></rect><rect class="cold" x="0" y="85" width="13" height="13" rx="3"><title>2026-01-16</title></rect><rect class="cold" x="0" y="102" width="13" height="13" rx="3"><title>2026-01-17</title></rect><rect class="cold" x="17" y="0" width="13" height="13" rx="3"><title>2026-01-18</title></rect><rect class="cold" x="17" y="17" width="13" height="13" rx="3"><title>2026-01-19</title></rect><rect class="cold" x="17" y="34" width="13" height="13" rx="3"><title>2026-01-20</title></rect><rect class="cold" x="17" y="51" width="13" height="13" rx="3"><title>2026-01-21</title></rect><rect class="cold" x="17" y="68" width="13" height="13" rx="3"><title>2026-01-22</title></rect><rect class="cold" x="17" y="85" width="13" height="13" rx="3"><title>2026-01-23</title></rect><rect class="cold" x="17" y="102" width="13" height="13" rx="3"><title>2026-01-24</title></rect><rect class="cold" x="34" y="0" width="13" height="13" rx="3"><title>2026-01-25</title></rect><rect class="cold" x="34" y="17" width="13" height="13" rx="3"><title>2026-01-26</title></rect><rect class="cold" x="34" y="34" width="13" height="13" rx="3"><title>2026-01-27</title></rect><rect class="cold" x="34" y="51" width="13" height="13" rx="3"><title>2026-01-28</title></rect><rect class="cold" x="34" y="68" width="13" height="13" rx="3"><title>2026-01-29</title></rect><rect class="cold" x="34" y="85" width="13" height="13" rx="3"><title>2026-01-30</title></rect><rect class="cold" x="34" y="102" width="13" height="13" rx="3"><title>2026-01-31</title></rect><rect class="cold" x="51" y="0" width="13" height="13" rx="3"><title>2026-02-01</title></rect><rect class="cold" x="51" y="17" width="13" height="13" rx="3"><title>2026-02-02</title></rect><rect class="cold" x="51" y="34" width="13" height="13" rx="3"><title>2026-02-03</title></rect><rect class="cold" x="51" y="51" width="13" height="13" rx="3"><title>2026-02-04</title></rect><rect class="cold" x="51" y="68" width="13" height="13" rx="3"><title>2026-02-05</title></rect><rect class="cold" x="51" y="85" width="13" height="13" rx="3"><title>2026-02-06</title></rect><rect class="cold" x="51" y="102" width="13" height="13" rx="3"><title>2026-02-07</title></rect><rect class="cold" x="68" y="0" width="13" height="13" rx="3"><title>2026-02-08</title></rect><rect class="cold" x="68" y="17" width="13" height="13" rx="3"><title>2026-02-09</title></rect><rect class="cold" x="68" y="34" width="13" height="13" rx="3"><title>2026-02-10</title></rect><rect class="cold" x="68" y="51" width="13" height="13" rx="3"><title>2026-02-11</title></rect><rect class="cold" x="68" y="68" width="13" height="13" rx="3"><title>2026-02-12</title></rect><rect class="cold" x="68" y="85" width="13" height="13" rx="3"><title>2026-02-13</title></rect><rect class="cold" x="68" y="102" width="13" height="13" rx="3"><title>2026-02-14</title></rect><rect class="cold" x="85" y="0" width="13" height="13" rx="3"><title>2026-02-15</title></rect><rect class="cold" x="85" y="17" width="13" height="13" rx="3"><title>2026-02-16</title></rect><rect class="cold" x="85" y="34" width="13" height="13" rx="3"><title>2026-02-17</title></rect><rect class="cold" x="85" y="51" width="13" height="13" rx="3"><title>2026-02-18</title></rect><rect class="cold" x="85" y="68" width="13" height="13" rx="3"><title>2026-02-19</title></rect><rect class="cold" x="85" y="85" width="13" height="13" rx="3"><title>2026-02-20</title></rect><rect class="cold" x="85" y="102" width="13" height="13" rx="3"><title>2026-02-21</title></rect><rect class="cold" x="102" y="0" width="13" height="13" rx="3"><title>2026-02-22</title></rect><rect class="cold" x="102" y="17" width="13" height="13" rx="3"><title>2026-02-23</title></rect><rect class="cold" x="102" y="34" width="13" height="13" rx="3"><title>2026-02-24</title></rect><rect class="cold" x="102" y="51" width="13" height="13" rx="3"><title>2026-02-25</title></rect><rect class="cold" x="102" y="68" width="13" height="13" rx="3"><title>2026-02-26</title></rect><rect class="cold" x="102" y="85" width="13" height="13" rx="3"><title>2026-02-27</title></rect><rect class="cold" x="102" y="102" width="13" height="13" rx="3"><title>2026-02-28</title></rect><rect class="cold" x="119" y="0" width="13" height="13" rx="3"><title>2026-03-01</title></rect><rect class="cold" x="119" y="17" width="13" height="13" rx="3"><title>2026-03-02</title></rect><rect class="cold" x="119" y="34" width="13" height="13" rx="3"><title>2026-03-03</title></rect><rect class="cold" x="119" y="51" width="13" height="13" rx="3"><title>2026-03-04</title></rect><rect class="cold" x="119" y="68" width="13" height="13" rx="3"><title>2026-03-05</title></rect><rect class="cold" x="119" y="85" width="13" height="13" rx="3"><title>2026-03-06</title></rect><rect class="cold" x="119" y="102" width="13" height="13" rx="3"><title>2026-03-07</title></rect><rect class="cold" x="136" y="0" width="13" height="13" rx="3"><title>2026-03-08</title></rect><rect class="cold" x="136" y="17" width="13" height="13" rx="3"><title>2026-03-09</title></rect><rect class="cold" x="136" y="34" width="13" height="13" rx="3"><title>2026-03-10</title></rect><rect class="cold" x="136" y="51" width="13" height="13" rx="3"><title>2026-03-11</title></rect><rect class="cold" x="136" y="68" width="13" height="13" rx="3"><title>2026-03-12</title></rect><rect class="cold" x="136" y="85" width="13" height="13" rx="3"><title>2026-03-13</title></rect><rect class="cold" x="136" y="102" width="13" height="13" rx="3"><title>2026-03-14</title></rect><rect class="cold" x="153" y="0" width="13" height="13" rx="3"><title>2026-03-15</title></rect><rect class="cold" x="153" y="17" width="13" height="13" rx="3"><title>2026-03-16</title></rect><rect class="cold" x="153" y="34" width="13" height="13" rx="3"><title>2026-03-17</title></rect><rect class="cold" x="153" y="51" width="13" height="13" rx="3"><title>2026-03-18</title></rect><rect class="cold" x="153" y="68" width="13" height="13" rx="3"><title>2026-03-19</title></rect><rect class="cold" x="153" y="85" width="13" height="13" rx="3"><title>2026-03-20</title></rect><rect class="cold" x="153" y="102" width="13" height="13" rx="3"><title>2026-03-21</title></rect><rect class="cold" x="170" y="0" width="13" height="13" rx="3"><title>2026-03-22</title></rect><rect class="cold" x="170" y="17" width="13" height="13" rx="3"><title>2026-03-23</title></rect><rect class="cold" x="170" y="34" width="13" height="13" rx="3"><title>2026-03-24</title></rect><rect class="cold" x="170" y="51" width="13" height="13" rx="3"><title>2026-03-25</title></rect><rect class="cold" x="170" y="68" width="13" height="13" rx="3"><title>2026-03-26</title></rect><rect class="cold" x="170" y="85" width="13" height="13" rx="3"><title>2026-03-27</title></rect><rect class="cold" x="170" y="102" width="13" height="13" rx="3"><title>2026-03-28</title></rect><rect class="cold" x="187" y="0" width="13" height="13" rx="3"><title>2026-03-29</title></rect><rect class="cold" x="187" y="17" width="13" height="13" rx="3"><title>2026-03-30</title></rect><rect class="cold" x="187" y="34" width="13" height="13" rx="3"><title>2026-03-31</title></rect><rect class="cold" x="187" y="51" width="13" height="13" rx="3"><title>2026-04-01</title></rect><rect class="cold" x="187" y="68" width="13" height="13" rx="3"><title>2026-04-02</title></rect><rect class="cold" x="187" y="85" width="13" height="13" rx="3"><title>2026-04-03</title></rect><rect class="cold" x="187" y="102" width="13" height="13" rx="3"><title>2026-04-04</title></rect><rect class="cold" x="204" y="0" width="13" height="13" rx="3"><title>2026-04-05</title></rect><rect class="cold" x="204" y="17" width="13" height="13" rx="3"><title>2026-04-06</title></rect><rect class="cold" x="204" y="34" width="13" height="13" rx="3"><title>2026-04-07</title></rect><rect class="cold" x="204" y="51" width="13" height="13" rx="3"><title>2026-04-08</title></rect><rect class="cold" x="204" y="68" width="13" height="13" rx="3"><title>2026-04-09</title></rect><rect class="cold" x="204" y="85" width="13" height="13" rx="3"><title>2026-04-10</title></rect><rect class="cold" x="204" y="102" width="13" height="13" rx="3"><title>2026-04-11</title></rect><rect class="cold" x="221" y="0" width="13" height="13" rx="3"><title>2026-04-12</title></rect><rect class="cold" x="221" y="17" width="13" height="13" rx="3"><title>2026-04-13</title></rect><rect class="cold" x="221" y="34" width="13" height="13" rx="3"><title>2026-04-14</title></rect><rect class="cold" x="221" y="51" width="13" height="13" rx="3"><title>2026-04-15</title></rect><rect class="cold" x="221" y="68" width="13" height="13" rx="3"><title>2026-04-16</title></rect><rect class="cold" x="221" y="85" width="13" height="13" rx="3"><title>2026-04-17</title></rect><rect class="cold" x="221" y="102" width="13" height="13" rx="3"><title>2026-04-18</title></rect><rect class="cold" x="238" y="0" width="13" height="13" rx="3"><title>2026-04-19</title></rect><rect class="cold" x="238" y="17" width="13" height="13" rx="3"><title>2026-04-20</title></rect><rect class="cold" x="238" y="34" width="13" height="13" rx="3"><title>2026-04-21</title></rect><rect class="cold" x="238" y="51" width="13" height="13" rx="3"><title>2026-04-22</title></rect><rect class="cold" x="238" y="68" width="13" height="13" rx="3"><title>2026-04-23</title></rect><rect class="cold" x="238" y="85" width="13" height="13" rx="3"><title>2026-04-24</title></rect><rect class="cold" x="238" y="102" width="13" height="13" rx="3"><title>2026-04-25</title></rect><rect class="cold" x="255" y="0" width="13" height="13" rx="3"><title>2026-04-26</title></rect><rect class="cold" x="255" y="17" width="13" height="13" rx="3"><title>2026-04-27</title></rect><rect class="cold" x="255" y="34" width="13" height="13" rx="3"><title>2026-04-28</title></rect><rect class="cold" x="255" y="51" width="13" height="13" rx="3"><title>2026-04-29</title></rect><rect class="cold" x="255" y="68" width="13" height="13" rx="3"><title>2026-04-30</title></rect><rect class="cold" x="255" y="85" width="13" height="13" rx="3"><title>2026-05-01</title></rect><rect class="cold" x="255" y="102" width="13" height="13" rx="3"><title>2026-05-02</title></rect><rect class="cold" x="272" y="0" width="13" height="13" rx="3"><title>2026-05-03</title></rect><rect class="cold" x="272" y="17" width="13" height="13" rx="3"><title>2026-05-04</title></rect><rect class="cold" x="272" y="34" width="13" height="13" rx="3"><title>2026-05-05</title></rect><rect class="cold" x="272" y="51" width="13" height="13" rx="3"><title>2026-05-06</title></rect><rect class="cold" x="272" y="68" width="13" height="13" rx="3"><title>2026-05-07</title></rect><rect class="cold" x="272" y="85" width="13" height="13" rx="3"><title>2026-05-08</title></rect><rect class="cold" x="272" y="102" width="13" height="13" rx="3"><title>2026-05-09</title></rect><rect class="cold" x="289" y="0" width="13" height="13" rx="3"><title>2026-05-10</title></rect><rect class="cold" x="289" y="17" width="13" height="13" rx="3"><title>2026-05-11</title></rect><rect class="cold" x="289" y="34" width="13" height="13" rx="3"><title>2026-05-12</title></rect><rect class="cold" x="289" y="51" width="13" height="13" rx="3"><title>2026-05-13</title></rect><rect class="cold" x="289" y="68" width="13" height="13" rx="3"><title>2026-05-14</title></rect><rect class="cold" x="289" y="85" width="13" height="13" rx="3"><title>2026-05-15</title></rect><rect class="cold" x="289" y="102" width="13" height="13" rx="3"><title>2026-05-16</title></rect><rect class="cold" x="306" y="0" width="13" height="13" rx="3"><title>2026-05-17</title></rect><rect class="cold" x="306" y="17" width="13" height="13" rx="3"><title>2026-05-18</title></rect><rect class="cold" x="306" y="34" width="13" height="13" rx="3"><title>2026-05-19</title></rect><rect class="cold" x="306" y="51" width="13" height="13" rx="3"><title>2026-05-20</title></rect><rect class="cold" x="306" y="68" width="13" height="13" rx="3"><title>2026-05-21</title></rect><rect class="cold" x="306" y="85" width="13" height="13" rx="3"><title>2026-05-22</title></rect><rect class="cold" x="306" y="102" width="13" height="13" rx="3"><title>2026-05-23</title></rect><rect class="cold" x="323" y="0" width="13" height="13" rx="3"><title>2026-05-24</title></rect><rect class="cold" x="323" y="17" width="13" height="13" rx="3"><title>2026-05-25</title></rect><rect class="cold" x="323" y="34" width="13" height="13" rx="3"><title>2026-05-26</title></rect><rect class="cold" x="323" y="51" width="13" height="13" rx="3"><title>2026-05-27</title></rect><rect class="cold" x="323" y="68" width="13" height="13" rx="3"><title>2026-05-28</title></rect><rect class="cold" x="323" y="85" width="13" height="13" rx="3"><title>2026-05-29</title></rect><rect class="cold" x="323" y="102" width="13" height="13" rx="3"><title>2026-05-30</title></rect><rect class="cold" x="340" y="0" width="13" height="13" rx="3"><title>2026-05-31</title></rect><rect class="cold" x="340" y="17" width="13" height="13" rx="3"><title>2026-06-01</title></rect><rect class="cold" x="340" y="34" width="13" height="13" rx="3"><title>2026-06-02</title></rect><rect class="cold" x="340" y="51" width="13" height="13" rx="3"><title>2026-06-03</title></rect><rect class="cold" x="340" y="68" width="13" height="13" rx="3"><title>2026-06-04</title></rect><rect class="cold" x="340" y="85" width="13" height="13" rx="3"><title>2026-06-05</title></rect><rect class="cold" x="340" y="102" width="13" height="13" rx="3"><title>2026-06-06</title></rect><rect class="hot" x="357" y="0" width="13" height="13" rx="3"><title>2026-06-07 Zone 5</title></rect><rect class="hot" x="357" y="17" width="13" height="13" rx="3"><title>2026-06-08 Zone 5</title></rect><rect class="cold" x="357" y="34" width="13" height="13" rx="3"><title>2026-06-09</title></rect><rect class="cold" x="357" y="51" width="13" height="13" rx="3"><title>2026-06-10</title></rect><rect class="cold" x="357" y="68" width="13" height="13" rx="3"><title>2026-06-11</title></rect><rect class="cold" x="357" y="85" width="13" height="13" rx="3"><title>2026-06-12</title></rect><rect class="cold" x="357" y="102" width="13" height="13" rx="3"><title>2026-06-13</title></rect><rect class="cold" x="374" y="0" width="13" height="13" rx="3"><title>2026-06-14</title></rect><rect class="cold" x="374" y="17" width="13" height="13" rx="3"><title>2026-06-15</title></rect><rect class="cold" x="374" y="34" width="13" height="13" rx="3"><title>2026-06-16</title></rect><rect class="cold" x="374" y="51" width="13" height="13" rx="3"><title>2026-06-17</title></rect><rect class="cold" x="374" y="68" width="13" height="13" rx="3"><title>2026-06-18</title></rect><rect class="cold" x="374" y="85" width="13" height="13" rx="3"><title>2026-06-19</title></rect><rect class="cold" x="374" y="102" width="13" height="13" rx="3"><title>2026-06-20</title></rect><rect class="cold" x="391" y="0" width="13" height="13" rx="3"><title>2026-06-21</title></rect><rect class="cold" x="391" y="17" width="13" height="13" rx="3"><title>2026-06-22</title></rect><rect class="cold" x="391" y="34" width="13" height="13" rx="3"><title>2026-06-23</title></rect><rect class="cold" x="391" y="51" width="13" height="13" rx="3"><title>2026-06-24</title></rect><rect class="cold" x="391" y="68" width="13" height="13" rx="3"><title>2026-06-25</title></rect><rect class="cold" x="391" y="85" width="13" height="13" rx="3"><title>2026-06-26</title></rect><rect class="cold" x="391" y="102" width="13" height="13" rx="3"><title>2026-06-27</title></rect><rect class="cold" x="408" y="0" width="13" height="13" rx="3"><title>2026-06-28</title></rect><rect class="cold" x="408" y="17" width="13" height="13" rx="3"><title>2026-06-29</title></rect><rect class="cold" x="408" y="34" width="13" height="13" rx="3"><title>2026-06-30</title></rect><rect class="cold" x="408" y="51" width="13" height="13" rx="3"><title>2026-07-01</title></rect><rect class="cold" x="408" y="68" width="13" height="13" rx="3"><title>2026-07-02</title></rect><rect class="cold" x="408" y="85" width="13" height="13" rx="3"><title>2026-07-03</title></rect><rect class="cold" x="408" y="102" width="13" height="13" rx="3"><title>2026-07-04</title></rect><rect class="cold" x="425" y="0" width="13" height="13" rx="3"><title>2026-07-05</title></rect>
</svg>